<svg width="106" height="40" viewBox="0 0 106 40" fill="none" xmlns="http://www.w3.org/2000/svg">
<g clip-path="url(#clip0_558_2868)">
<path d="M5.59321 0C9.04193 0.150368 11.3335 2.39514 11.2773 5.73725C11.2123 9.50181 8.75571 11.5443 5.64413 11.5568C2.38857 11.5712 -0.0381765 9.25657 0.00045479 5.69429C0.0390861 2.22509 2.2358 0.0984551 5.59321 0ZM5.59672 8.23443C7.0173 8.37405 8.17448 6.88112 8.1657 5.69966C8.15517 4.38036 6.94004 3.1792 5.63711 3.20248C4.34647 3.22575 3.19105 4.32665 3.23846 5.67101C3.29114 7.19259 4.19195 8.23264 5.59848 8.23622L5.59672 8.23443Z" fill="#1C1F22"/>
<path d="M33.4417 14.142C36.6007 13.7983 39.2908 16.8253 39.1135 20.0385C38.9502 23.0226 36.4953 25.5771 33.447 25.5985C30.4952 25.6182 27.705 22.7881 27.8033 19.5928C27.8911 16.7412 30.302 13.8197 33.4417 14.142ZM33.4505 17.3641C31.8912 17.1815 31.0466 18.6208 31.0027 19.7324C30.95 21.0947 32.1441 22.3639 33.4365 22.3764C34.764 22.3889 35.9089 21.1842 35.9106 19.77C35.9141 18.3039 34.9571 17.3677 33.4487 17.3641H33.4505Z" fill="#1C1F22"/>
<path d="M55.4685 21.1714H51.8793C51.8793 22.2114 51.8793 21.1714 51.8494 25.0666H48.6992V14.5444H51.8652V18.2589C52.9364 18.2589 55.1717 18.2356 55.3772 18.2356C55.4035 16.2755 55.4035 15.6167 55.4035 14.5677H58.6643V24.9753H55.4702V21.1714H55.4685Z" fill="#1C1F22"/>
<path d="M71.1748 14.5303V16.997H65.9807V18.3736H71.1379V20.9155H66.0878V22.4371H71.1643V24.9808H63.0078V14.5303H71.1748Z" fill="#1C1F22"/>
<path d="M105.439 18.7742C104.37 18.7742 103.394 18.7957 102.419 18.7509C102.272 18.7438 102.137 18.4198 101.998 18.2408C101.278 17.3099 100.252 16.9877 99.1549 17.3493C98.1101 17.693 97.578 18.3607 97.5447 19.3739C97.492 21.0064 97.866 21.7171 99.0513 22.2309C99.9784 22.6319 101.329 22.2595 101.993 21.4737C102.212 21.2141 102.156 21.0387 102.489 21.0029C103.213 20.9277 104.284 20.9438 105.015 20.9456C105.102 20.9456 105.188 20.9563 105.276 20.9635C105.08 23.3228 102.461 25.5175 99.8046 25.4011C96.9266 25.2758 94.7 23.2745 94.3997 20.763C93.9537 17.0253 95.8853 14.904 98.9951 14.3688C101.604 13.9195 104.549 15.1278 105.436 18.7742H105.439Z" fill="#1C1F22"/>
<path d="M84.1654 14.5122V17.1687H80.9063V24.9968H77.7245V17.2224H74.2617V14.5122H84.1654Z" fill="#1C1F22"/>
<path d="M7.50391 28.5425H10.8806C10.9052 28.7913 10.9175 36.1128 10.9544 39.1201H7.50391V28.5425Z" fill="#1C1F22"/>
<path d="M21.3828 14.5176H24.7595C24.7841 14.7664 24.7964 22.0879 24.8333 25.0952H21.3828V14.5176Z" fill="#1C1F22"/>
<path d="M14.5391 14.5674H17.9158C17.9404 14.8162 17.9527 22.1377 17.9895 25.145H14.5391V14.5674Z" fill="#1C1F22"/>
<path d="M35.2422 0.545898H38.6189C38.6435 0.794721 38.6558 8.1162 38.6927 11.1236H35.2422V0.545898Z" fill="#1C1F22"/>
<path d="M28.3867 0.59668H31.7634C31.788 0.845503 31.8003 8.16698 31.8372 11.1743H28.3867V0.59668Z" fill="#1C1F22"/>
<path d="M10.7607 14.5356V17.9995H0.488281V14.5356H10.7607Z" fill="#1C1F22"/>
<path d="M0.460938 24.9629V21.542H10.7404V24.9629H0.460938Z" fill="#1C1F22"/>
<path d="M38.672 32.0055H28.4102V28.5542H38.672V32.0055Z" fill="#1C1F22"/>
<path d="M38.6475 39.0192H28.4102V35.5195H38.6475V39.0192Z" fill="#1C1F22"/>
<path d="M3.95238 39.1634H0.640625V28.6914H3.95238V39.1634Z" fill="#1C1F22"/>
<path d="M87.8047 14.5269H90.9005V25.0061H87.8047V14.5269Z" fill="#1C1F22"/>
</g>
<defs>
<clipPath id="clip0_558_2868">
<rect width="105.441" height="39.1637" fill="white"/>
</clipPath>
</defs>
</svg>
