<svg width="16" height="16" viewBox="0 0 16 16" fill="none" xmlns="http://www.w3.org/2000/svg">
<path fill-rule="evenodd" clip-rule="evenodd" d="M11.6848 10.5328L15.7621 14.6108C16.0792 14.928 16.0802 15.4414 15.7594 15.7624C15.4408 16.081 14.9195 16.0765 14.608 15.765L10.5308 11.687C7.96996 13.6804 4.26578 13.4999 1.9119 11.1456C-0.6373 8.59589 -0.6373 4.46187 1.9119 1.91227C4.46123 -0.637424 8.59432 -0.637424 11.1434 1.91227C13.4973 4.26661 13.6777 7.97141 11.6848 10.5329L11.6848 10.5328ZM9.98962 9.99146C11.9016 8.07911 11.9016 4.97884 9.98962 3.06632C8.07764 1.15396 4.97797 1.15396 3.06582 3.06632C1.15384 4.97868 1.15384 8.07895 3.06582 9.99146C4.97781 11.9038 8.07748 11.9038 9.98962 9.99146Z" fill="black"/>
</svg>
