<svg width="604" height="595" viewBox="0 0 604 595" fill="none" xmlns="http://www.w3.org/2000/svg">
<path d="M81.1099 126.323C72.128 -8.46674 205.256 5.3848 291.481 63.2624C342.338 94.3675 391.082 40.1914 454.074 78.7707C517.065 117.35 419.562 178.005 515.51 239.163C611.457 300.322 524.051 467.678 432.625 451.007C341.2 434.337 360.054 469.389 254.976 519.091C149.898 568.792 16.1355 442.205 74.9058 349.669C133.676 257.133 90.833 272.235 81.1099 126.323Z" stroke="#009DDC" stroke-opacity="0.2" stroke-width="3"/>
<path d="M256.555 265.873C254.99 252.889 278.054 237.206 291.638 248.718C304.076 259.259 319.41 257.029 328.136 262.383C351.108 276.478 340.999 279.358 349.899 292.316C360.729 308.084 360.175 343.427 329.134 337.042C303.604 331.791 308.694 345.755 288.448 347.314C268.202 348.873 248.445 335.066 253.506 310.458C255.407 301.217 259.161 287.498 256.555 265.873Z" stroke="#009DDC" stroke-opacity="0.2" stroke-width="3"/>
<path d="M97.1844 138.389C88.8768 14.6728 211.999 25.8394 291.621 79.5019C338.985 108.738 384.691 59.2839 442.75 94.8427C502.103 131.196 412.545 186.599 500.579 243.375C588.789 300.407 509.278 455.762 423.342 440.027C337.907 424.394 355.509 457.529 258.143 502.854C160.778 548.18 37.3795 431.845 91.2672 345.485C144.868 260.521 106.261 273.003 97.1844 138.389Z" stroke="#009DDC" stroke-opacity="0.2" stroke-width="3"/>
<path d="M113.259 150.456C105.626 37.8126 218.742 46.2942 291.76 95.7416C335.631 123.108 378.3 78.3766 431.426 110.915C487.141 145.042 405.528 195.193 485.649 247.587C566.12 300.493 494.505 443.847 414.059 429.046C334.614 414.452 350.965 445.67 261.311 486.618C171.657 527.567 58.6234 421.486 107.629 341.3C156.059 263.909 121.688 273.77 113.259 150.456Z" stroke="#009DDC" stroke-opacity="0.2" stroke-width="3"/>
<path d="M129.334 162.523C122.374 60.9528 225.485 66.7494 291.899 111.982C332.278 137.479 371.91 97.4697 420.102 126.987C472.179 158.889 398.511 203.787 470.718 251.8C543.452 300.579 479.732 431.932 404.775 418.067C331.321 404.51 346.421 433.811 264.479 470.383C182.537 506.955 79.8674 411.126 123.99 337.116C167.25 267.297 137.116 274.538 129.334 162.523Z" stroke="#009DDC" stroke-opacity="0.2" stroke-width="3"/>
<path d="M145.408 174.591C139.123 84.0939 232.228 87.2056 292.038 128.223C328.925 151.85 365.519 116.564 408.778 143.061C457.217 172.737 391.494 212.382 455.788 256.014C520.783 300.667 464.96 420.018 395.492 407.088C328.029 394.57 341.877 421.953 267.647 454.148C193.417 486.344 101.111 400.768 140.351 332.933C178.442 270.686 152.543 275.307 145.408 174.591Z" stroke="#009DDC" stroke-opacity="0.2" stroke-width="3"/>
<path d="M161.395 187.084C155.785 107.661 238.884 108.088 292.09 144.89C325.484 166.648 359.041 136.084 397.367 159.56C442.168 187.01 384.389 221.404 440.77 260.653C498.027 301.18 450.1 408.53 386.122 396.534C324.649 385.055 337.246 410.521 270.728 438.34C204.21 466.158 122.268 390.835 156.625 329.176C189.546 274.501 167.883 276.502 161.395 187.084Z" stroke="#009DDC" stroke-opacity="0.2" stroke-width="3"/>
<path d="M177.279 200.082C172.343 131.731 245.436 129.473 292.039 162.06C321.94 181.949 352.46 156.107 385.852 176.563C427.015 201.787 377.182 230.929 425.649 265.796C475.168 302.196 435.136 397.545 376.648 386.485C321.165 376.043 332.511 399.593 273.705 423.035C214.899 446.477 143.321 381.406 172.796 325.922C200.547 278.82 183.12 278.201 177.279 200.082Z" stroke="#009DDC" stroke-opacity="0.2" stroke-width="3"/>
<path d="M193.158 213.107C188.896 155.83 251.983 150.887 291.982 179.259C318.391 197.278 345.873 176.159 374.332 193.594C411.857 216.593 369.968 240.482 410.522 270.967C452.304 303.241 420.167 386.589 367.168 376.464C317.676 367.06 327.771 388.692 276.677 407.758C225.583 426.823 164.369 372.006 188.962 322.696C211.542 283.166 198.352 279.927 193.158 213.107Z" stroke="#009DDC" stroke-opacity="0.2" stroke-width="3"/>
<path d="M209.029 226.173C205.441 179.969 258.522 172.341 291.917 196.498C314.834 212.648 339.279 196.251 362.805 210.666C396.692 231.438 362.748 250.075 395.388 276.179C429.432 304.326 405.191 375.673 357.681 366.483C314.18 358.117 323.024 377.832 279.641 392.521C236.259 407.21 185.41 362.645 205.119 319.511C222.53 287.554 213.576 281.694 209.029 226.173Z" stroke="#009DDC" stroke-opacity="0.2" stroke-width="3"/>
<path d="M224.889 239.299C221.975 204.168 265.051 193.855 291.842 213.797C311.266 228.077 332.674 216.402 351.266 227.797C381.515 246.344 355.516 259.728 380.243 281.45C406.549 305.471 390.203 364.816 348.183 356.561C310.673 349.234 318.265 367.032 282.595 377.344C246.925 387.656 206.439 353.345 221.266 316.386C233.507 292 228.789 283.521 224.889 239.299Z" stroke="#009DDC" stroke-opacity="0.2" stroke-width="3"/>
<path d="M240.733 252.515C238.494 228.458 271.563 215.46 291.751 231.187C307.682 243.598 326.053 236.645 339.712 245.019C366.323 261.34 348.269 269.472 365.082 286.812C383.65 306.707 375.2 354.051 338.67 346.731C307.15 340.442 313.49 356.323 285.532 362.258C257.574 368.194 227.453 344.135 237.397 313.351C244.468 296.538 243.986 285.439 240.733 252.515Z" stroke="#009DDC" stroke-opacity="0.2" stroke-width="3"/>
</svg>
