<svg width="390" height="1263" viewBox="0 0 390 1263" fill="none" xmlns="http://www.w3.org/2000/svg">
<path d="M563.278 864.413C597.525 988.365 470.66 1000.98 379.106 963.554C325.688 944.306 290.608 1004.17 224.434 980.277C158.26 956.388 237.589 881.136 136.334 842.514C35.0798 803.893 84.5113 631.092 173.009 629.101C261.507 627.11 237.19 598.045 325.688 531.552C414.186 465.06 563.278 557.433 526.204 654.982C489.131 752.53 526.205 730.234 563.278 864.413Z" stroke="#009DDC" stroke-opacity="0.1" stroke-width="3"/>
<path d="M372.809 767.948C376.761 779.754 358.252 798.799 343.37 790.671C329.742 783.228 315.864 788.248 306.695 784.93C282.557 776.194 291.436 771.57 280.646 761.195C267.516 748.57 261.25 715.511 291.436 715.511C316.262 715.511 308.834 703.468 327.424 698.131C346.015 692.795 367.097 701.879 367.097 725.793C367.097 734.774 366.228 748.285 372.809 767.948Z" stroke="#009DDC" stroke-opacity="0.1" stroke-width="3"/>
<path d="M545.965 856.246C577.458 970.002 460.444 983.203 375.86 948.44C326.059 930.265 292.906 985.14 231.915 963.12C169.562 940.609 242.486 871.777 149.456 835.724C56.2127 799.466 100.581 639.369 183.778 637.559C266.488 635.749 243.706 608.231 325.849 547.298C407.991 486.365 545.445 571.166 511.742 662.021C478.039 751.518 511.664 732.477 545.965 856.246Z" stroke="#009DDC" stroke-opacity="0.1" stroke-width="3"/>
<path d="M528.652 848.078C557.391 951.639 450.227 965.425 372.613 933.325C326.43 916.223 295.205 966.113 239.395 945.963C180.864 924.829 247.384 862.419 162.577 828.933C77.3456 795.038 116.65 647.645 194.546 646.016C271.468 644.387 250.221 618.417 326.009 563.043C401.796 507.67 527.613 584.9 497.28 669.06C466.948 750.506 497.123 734.72 528.652 848.078Z" stroke="#009DDC" stroke-opacity="0.1" stroke-width="3"/>
<path d="M511.339 839.91C537.324 933.276 440.011 947.646 369.367 918.21C326.801 902.181 297.503 947.085 246.876 928.806C192.166 909.049 252.281 853.06 175.699 822.142C98.4784 790.61 132.72 655.921 205.315 654.473C276.448 653.025 256.737 628.602 326.169 578.788C395.601 528.975 509.781 598.632 482.818 676.099C455.856 749.493 482.582 736.962 511.339 839.91Z" stroke="#009DDC" stroke-opacity="0.1" stroke-width="3"/>
<path d="M494.026 831.741C517.256 914.912 429.794 929.867 366.12 903.094C327.171 888.139 299.801 928.057 254.356 911.648C203.468 893.269 257.179 843.7 188.82 815.35C119.611 786.182 148.789 664.196 216.083 662.929C281.427 661.662 263.252 638.787 326.329 594.533C389.406 550.279 491.948 612.365 468.356 683.137C444.764 748.48 468.04 739.204 494.026 831.741Z" stroke="#009DDC" stroke-opacity="0.1" stroke-width="3"/>
<path d="M476.712 823.158C497.189 896.135 419.577 911.674 362.873 887.564C327.542 873.682 302.099 908.615 261.836 894.076C214.77 877.075 262.076 833.926 201.941 808.144C140.743 781.339 164.858 672.057 226.851 670.972C286.407 669.886 269.767 648.557 326.488 609.863C383.21 571.169 474.116 625.683 453.894 689.762C433.672 747.052 453.499 741.032 476.712 823.158Z" stroke="#009DDC" stroke-opacity="0.1" stroke-width="3"/>
<path d="M459.398 814.086C477.121 876.867 409.359 892.991 359.626 871.545C327.912 858.736 304.396 888.683 269.316 876.015C226.071 860.391 266.973 823.663 215.062 800.449C161.875 776.007 180.927 679.429 237.618 678.525C291.386 677.62 276.281 657.839 326.648 624.704C377.014 591.57 456.283 638.512 439.431 695.897C422.58 745.136 438.957 742.371 459.398 814.086Z" stroke="#009DDC" stroke-opacity="0.1" stroke-width="3"/>
<path d="M442.084 804.987C457.052 857.573 399.142 874.281 356.379 855.499C328.281 843.763 306.694 868.725 276.796 857.926C237.372 843.68 271.869 813.373 228.183 792.726C183.007 770.648 196.995 686.774 248.385 686.05C296.365 685.326 282.796 667.093 326.807 639.518C370.818 611.943 438.449 651.314 424.968 702.004C411.487 743.192 424.415 743.682 442.084 804.987Z" stroke="#009DDC" stroke-opacity="0.1" stroke-width="3"/>
<path d="M424.769 795.848C436.983 838.239 388.923 855.532 353.13 839.413C328.65 828.75 308.99 848.727 284.274 839.798C248.672 826.93 276.765 803.043 241.302 784.965C204.138 765.25 213.063 694.079 259.152 693.536C301.343 692.994 289.309 676.308 326.965 654.292C364.621 632.277 420.615 664.076 410.504 708.073C400.393 741.208 409.872 744.954 424.769 795.848Z" stroke="#009DDC" stroke-opacity="0.1" stroke-width="3"/>
<path d="M407.453 786.652C416.913 818.848 378.704 836.725 349.881 823.27C329.018 813.68 311.285 828.671 291.752 821.613C259.971 810.122 281.659 792.656 254.421 777.146C225.268 759.794 229.129 701.327 269.917 700.965C306.32 700.603 295.821 685.465 327.122 669.009C358.423 652.554 402.78 676.781 396.039 714.083C389.299 739.167 395.328 746.168 407.453 786.652Z" stroke="#009DDC" stroke-opacity="0.1" stroke-width="3"/>
<path d="M390.135 777.368C396.84 799.369 368.481 817.83 346.629 807.038C329.383 798.522 313.578 808.528 299.227 803.339C271.268 793.226 286.551 782.181 267.537 769.238C246.395 754.25 245.193 708.487 280.68 708.306C311.295 708.125 302.331 694.534 327.277 683.638C352.222 672.742 384.942 689.398 381.572 720.006C378.201 737.039 380.781 747.295 390.135 777.368Z" stroke="#009DDC" stroke-opacity="0.1" stroke-width="3"/>
<path d="M-173.278 123.587C-207.525 -0.364602 -80.6603 -12.9814 10.8939 24.4455C64.3117 43.6937 99.3919 -16.1667 165.566 7.72286C231.74 31.6124 152.411 106.864 253.666 145.486C354.92 184.107 305.489 356.908 216.991 358.899C128.493 360.89 152.81 389.955 64.3116 456.448C-24.1864 522.94 -173.278 430.567 -136.204 333.018C-99.1307 235.47 -136.205 257.766 -173.278 123.587Z" stroke="#009DDC" stroke-opacity="0.1" stroke-width="3"/>
<path d="M17.1911 220.052C13.2396 208.246 31.7478 189.201 46.6304 197.329C60.2586 204.772 74.1365 199.752 83.3052 203.07C107.443 211.806 98.5642 216.43 109.354 226.805C122.485 239.43 128.75 272.489 98.5642 272.489C73.7378 272.489 81.1661 284.532 62.5759 289.868C43.9856 295.205 22.903 286.121 22.903 262.207C22.903 253.226 23.7724 239.715 17.1911 220.052Z" stroke="#009DDC" stroke-opacity="0.1" stroke-width="3"/>
<path d="M-155.965 131.754C-187.458 17.9979 -70.4436 4.79669 14.1405 39.5601C63.941 57.7351 97.0938 2.86017 158.086 24.8796C220.438 47.3915 147.514 116.223 240.544 152.276C333.788 188.534 289.419 348.631 206.222 350.441C123.513 352.251 146.294 379.769 64.1516 440.702C-17.9911 501.635 -155.445 416.834 -121.742 325.979C-88.0389 236.482 -121.663 255.523 -155.965 131.754Z" stroke="#009DDC" stroke-opacity="0.1" stroke-width="3"/>
<path d="M-138.652 139.922C-167.391 36.3607 -60.2273 22.5751 17.3867 54.6749C63.57 71.7767 94.7952 21.8873 150.605 42.0366C209.136 63.1709 142.616 125.581 227.423 159.067C312.654 192.962 273.35 340.355 195.454 341.984C118.532 343.613 139.779 369.583 63.9913 424.957C-11.7963 480.33 -137.613 403.1 -107.28 318.94C-76.9475 237.494 -107.123 253.28 -138.652 139.922Z" stroke="#009DDC" stroke-opacity="0.1" stroke-width="3"/>
<path d="M-121.339 148.09C-147.323 54.7239 -50.0104 40.3538 20.6334 69.7901C63.1995 85.8187 92.4973 40.9148 143.125 59.194C197.834 78.9506 137.719 134.94 214.301 165.858C291.522 197.39 257.28 332.079 184.686 333.527C113.553 334.975 133.264 359.398 63.8314 409.212C-5.60083 459.025 -119.781 389.368 -92.8181 311.901C-65.8556 238.507 -92.5813 251.038 -121.339 148.09Z" stroke="#009DDC" stroke-opacity="0.1" stroke-width="3"/>
<path d="M-104.026 156.259C-127.256 73.0876 -39.7938 58.1331 23.8799 84.9059C62.8287 99.8613 90.199 59.943 135.644 76.352C186.532 94.731 132.821 144.3 201.18 172.65C270.389 201.818 241.211 323.804 173.917 325.071C108.573 326.338 126.748 349.213 63.6713 393.467C0.594276 437.721 -101.948 375.635 -78.3562 304.862C-54.764 239.52 -78.0403 248.796 -104.026 156.259Z" stroke="#009DDC" stroke-opacity="0.1" stroke-width="3"/>
<path d="M-86.7119 164.842C-107.188 91.8654 -29.5765 76.3264 27.127 100.436C62.4586 114.318 87.9014 79.385 128.164 93.9239C175.231 110.925 127.925 154.074 188.059 179.856C249.257 206.661 225.142 315.942 163.15 317.028C103.593 318.114 120.234 339.443 63.5118 378.137C6.79008 416.831 -84.1154 362.317 -63.8935 298.238C-43.6717 240.948 -63.4986 246.968 -86.7119 164.842Z" stroke="#009DDC" stroke-opacity="0.1" stroke-width="3"/>
<path d="M-69.3984 173.914C-87.1207 111.133 -19.3595 95.0092 30.3739 116.455C62.0883 129.264 85.6036 99.3165 120.684 111.985C163.929 127.609 123.027 164.337 174.938 187.551C228.125 211.993 209.073 308.571 152.382 309.475C98.6137 310.38 113.719 330.161 63.3522 363.296C12.9857 396.43 -66.2827 349.488 -49.4311 292.103C-32.5796 242.864 -48.9571 245.629 -69.3984 173.914Z" stroke="#009DDC" stroke-opacity="0.1" stroke-width="3"/>
<path d="M-52.084 183.013C-67.0521 130.427 -9.14148 113.719 33.6217 132.501C61.7188 144.237 83.3067 119.275 113.205 130.074C152.628 144.32 118.131 174.627 161.818 195.274C206.993 217.352 193.005 301.226 141.615 301.95C93.635 302.674 107.205 320.907 63.1934 348.482C19.1822 376.057 -48.4491 336.686 -34.9678 285.996C-21.4865 244.808 -34.4147 244.318 -52.084 183.013Z" stroke="#009DDC" stroke-opacity="0.1" stroke-width="3"/>
<path d="M-34.7694 192.152C-46.9833 149.761 1.07671 132.468 36.8697 148.587C61.3496 159.25 81.01 139.273 105.726 148.202C141.328 161.07 113.235 184.957 148.698 203.035C185.862 222.75 176.937 293.921 130.848 294.464C88.6566 295.006 100.691 311.692 63.0349 333.708C25.3789 355.723 -30.6152 323.924 -20.5043 279.927C-10.3933 246.792 -19.8721 243.046 -34.7694 192.152Z" stroke="#009DDC" stroke-opacity="0.1" stroke-width="3"/>
<path d="M-17.453 201.348C-26.9128 169.152 11.2966 151.275 40.1195 164.73C60.9821 174.32 78.715 159.329 98.2483 166.387C130.029 177.878 108.341 195.344 135.579 210.854C164.732 228.206 160.871 286.673 120.083 287.035C83.6798 287.397 94.1788 302.535 62.8781 318.991C31.5773 335.446 -12.7796 311.219 -6.03899 273.917C0.701635 248.833 -5.32771 241.832 -17.453 201.348Z" stroke="#009DDC" stroke-opacity="0.1" stroke-width="3"/>
<path d="M-0.134612 210.632C-6.84027 188.631 21.5186 170.17 43.3713 180.962C60.6167 189.478 76.4221 179.472 90.7731 184.661C118.732 194.774 103.449 205.819 122.463 218.762C143.605 233.75 144.807 279.513 109.32 279.694C78.7052 279.875 87.6688 293.466 62.7233 304.362C37.7778 315.258 5.05803 298.602 8.42834 267.994C11.7987 250.961 9.2187 240.705 -0.134612 210.632Z" stroke="#009DDC" stroke-opacity="0.1" stroke-width="3"/>
</svg>
